<?xml version="1.0" encoding="UTF-8"?>
<!DOCTYPE svg PUBLIC "-//W3C//DTD SVG 1.1//EN" "http://www.w3.org/Graphics/SVG/1.1/DTD/svg11.dtd">
<svg xmlns="http://www.w3.org/2000/svg" version="1.1" width="122px" height="516px" style="shape-rendering:geometricPrecision; text-rendering:geometricPrecision; image-rendering:optimizeQuality; fill-rule:evenodd; clip-rule:evenodd" xmlns:xlink="http://www.w3.org/1999/xlink">
<defs>
    <!-- Degradado lineal en diagonal a 45 grados de oscuro a claro -->
    <linearGradient id="logoGradient" gradientUnits="userSpaceOnUse" x1="0" y1="0" x2="296.5" y2="296.5">
        <stop offset="0%" stop-color="#471919" />
        <stop offset="100%" stop-color="#d03c3c" />
    </linearGradient>
</defs>
<g transform="translate(0, 45)"><path style="opacity:1" fill="#d03c3c" d="M 2.5,-0.5 C 41.5,-0.5 80.5,-0.5 119.5,-0.5C 119.842,0.338246 120.508,0.67158 121.5,0.5C 121.5,156.833 121.5,313.167 121.5,469.5C 120.508,469.328 119.842,469.662 119.5,470.5C 80.5,470.5 41.5,470.5 2.5,470.5C 2.20136,468.545 1.20136,467.211 -0.5,466.5C -0.5,465.833 -0.5,465.167 -0.5,464.5C 1.16866,309.767 2.16866,154.767 2.5,-0.5 Z M 29.5,7.5 C 49.8333,7.5 70.1667,7.5 90.5,7.5C 90.4643,11.9781 89.6309,16.3115 88,20.5C 78.2173,42.08 68.7173,63.7466 59.5,85.5C 57.4477,80.3478 54.9477,75.3478 52,70.5C 45.4111,52.3927 38.2445,34.5594 30.5,17C 29.6328,13.8948 29.2994,10.7281 29.5,7.5 Z M 107.5,7.5 C 108.833,7.5 110.167,7.5 111.5,7.5C 111.667,42.1683 111.5,76.8349 111,111.5C 101.033,96.471 86.8662,88.3044 68.5,87C 78.8565,67.4677 88.1898,47.4677 96.5,27C 99.8951,20.2792 103.562,13.7792 107.5,7.5 Z M 12.5,13.5 C 13.4584,13.9528 14.2917,14.6195 15,15.5C 25.3495,39.2278 35.8495,62.8945 46.5,86.5C 39.4488,89.1309 32.4488,92.1309 25.5,95.5C 19.7946,99.7046 14.9613,104.705 11,110.5C 10.3333,79.8333 10.3333,49.1667 11,18.5C 12.2692,17.0953 12.7692,15.4286 12.5,13.5 Z M 65.5,93.5 C 68.9139,93.7358 72.2473,94.4025 75.5,95.5C 94.8617,104.366 104.862,119.533 105.5,141C 105.41,153.214 101.576,164.047 94,173.5C 93.2651,170.315 93.7651,167.315 95.5,164.5C 94.3087,158.904 92.4753,153.571 90,148.5C 83.0972,142.016 74.9305,138.016 65.5,136.5C 65.5,122.167 65.5,107.833 65.5,93.5 Z M 45.5,94.5 C 46.4584,94.9528 47.2917,95.6195 48,96.5C 48.6103,99.8273 49.1103,103.161 49.5,106.5C 50.5,106.5 51.5,106.5 52.5,106.5C 52.5,116.5 52.5,126.5 52.5,136.5C 40.1622,136.667 27.8288,136.5 15.5,136C 16,135.5 16.5,135 17,134.5C 18.0136,122.793 22.5136,112.627 30.5,104C 35.7351,101.007 40.7351,97.8403 45.5,94.5 Z M 15.5,139.5 C 18.3426,139.942 21.0093,140.942 23.5,142.5C 24.1924,143.025 24.6924,143.692 25,144.5C 25.6667,153.5 25.6667,162.5 25,171.5C 18.7794,161.762 15.6127,151.096 15.5,139.5 Z M 39.5,144.5 C 49.5566,144.135 59.5566,144.635 69.5,146C 76.5934,150.487 79.9267,156.987 79.5,165.5C 80.115,171.208 78.7817,176.374 75.5,181C 63.5046,181.5 51.5046,181.667 39.5,181.5C 39.5,169.167 39.5,156.833 39.5,144.5 Z M 110.5,170.5 C 111.497,188.993 111.83,207.659 111.5,226.5C 106.489,226.666 101.489,226.499 96.5,226C 88.6707,215.676 80.3374,205.843 71.5,196.5C 76.0221,194.567 80.6887,193.234 85.5,192.5C 85.8844,194.929 86.551,197.263 87.5,199.5C 88.5,199.5 89.5,199.5 90.5,199.5C 90.335,196.15 90.5017,192.817 91,189.5C 98.1575,185.359 104.491,180.026 110,173.5C 110.483,172.552 110.649,171.552 110.5,170.5 Z M 10.5,173.5 C 15.1967,178.032 20.03,182.366 25,186.5C 25.6667,202.5 25.6667,218.5 25,234.5C 24.586,234.957 24.086,235.291 23.5,235.5C 19.1817,231.682 15.015,227.682 11,223.5C 10.5001,206.837 10.3334,190.17 10.5,173.5 Z M 39.5,195.5 C 44.5111,195.334 49.5111,195.501 54.5,196C 57.3333,198.833 60.1667,201.667 63,204.5C 67.8186,212.313 72.9852,219.813 78.5,227C 77.1834,228.614 75.5167,229.781 73.5,230.5C 62.1862,231.499 50.8529,231.832 39.5,231.5C 39.5,219.5 39.5,207.5 39.5,195.5 Z M 110.5,233.5 C 111.782,234.708 111.782,236.042 110.5,237.5C 110.094,236.443 110.094,235.109 110.5,233.5 Z M 44.5,237.5 C 54.1724,237.334 63.8391,237.5 73.5,238C 75.3289,238.273 76.8289,239.107 78,240.5C 78.4966,242.81 78.6633,245.143 78.5,247.5C 80.1667,247.5 81.8333,247.5 83.5,247.5C 83.2739,244.751 83.6072,242.084 84.5,239.5C 86.1667,239.167 87.8333,238.833 89.5,238.5C 92.8612,239.184 96.1945,239.85 99.5,240.5C 99.6665,251.838 99.4999,263.172 99,274.5C 87.3598,268.944 75.0265,265.944 62,265.5C 56.2648,266.381 50.5982,267.381 45,268.5C 44.5002,258.172 44.3335,247.839 44.5,237.5 Z M 108.5,241.5 C 109.5,241.5 110.5,241.5 111.5,241.5C 111.667,268.835 111.5,296.169 111,323.5C 110.692,322.692 110.192,322.025 109.5,321.5C 108.5,294.842 108.167,268.175 108.5,241.5 Z M 18.5,250.5 C 22.1456,253.479 25.479,256.812 28.5,260.5C 29.325,261.386 30.325,261.719 31.5,261.5C 31.5,265.5 31.5,269.5 31.5,273.5C 29.9397,273.519 28.4397,273.852 27,274.5C 24.8122,277.537 21.9789,279.537 18.5,280.5C 18.5,270.5 18.5,260.5 18.5,250.5 Z M 65.5,273.5 C 69.2017,273.421 72.8683,273.754 76.5,274.5C 81.617,276.413 86.617,278.579 91.5,281C 99.2696,287.73 101.77,296.23 99,306.5C 87.7669,296.595 76.9336,286.429 66.5,276C 65.7476,275.329 65.4142,274.496 65.5,273.5 Z M 43.5,276.5 C 58.8634,287.174 72.8634,299.84 85.5,314.5C 93.7111,320.202 101.211,326.869 108,334.5C 106.116,350.41 97.4489,361.077 82,366.5C 76.512,367.689 71.012,368.689 65.5,369.5C 65.3334,356.496 65.5001,343.496 66,330.5C 66.3333,329.833 66.6667,329.167 67,328.5C 67.4955,330.473 67.6621,332.473 67.5,334.5C 68.8333,334.5 70.1667,334.5 71.5,334.5C 73.4189,329.73 74.7522,324.73 75.5,319.5C 76.5,319.5 77.5,319.5 78.5,319.5C 78.5,318.5 78.5,317.5 78.5,316.5C 64.8333,316.5 51.1667,316.5 37.5,316.5C 37.5,317.5 37.5,318.5 37.5,319.5C 41.268,319.81 44.9347,320.643 48.5,322C 50.4875,323.319 51.6541,325.152 52,327.5C 52.4999,340.829 52.6666,354.163 52.5,367.5C 50.2655,367.62 48.0989,367.287 46,366.5C 41.6936,364.516 37.5269,362.349 33.5,360C 28.9142,354.731 25.0808,348.898 22,342.5C 18.9729,337.072 20.4729,333.739 26.5,332.5C 28.396,331.534 30.396,331.201 32.5,331.5C 32.5,330.5 32.5,329.5 32.5,328.5C 25.1489,329.572 20.6489,326.572 19,319.5C 18.1438,299.801 26.3105,285.468 43.5,276.5 Z M 10.5,350.5 C 17.36,360.962 26.6933,368.629 38.5,373.5C 40.0538,375.933 40.7204,378.6 40.5,381.5C 41.8333,381.5 43.1667,381.5 44.5,381.5C 44.2978,379.011 44.7978,376.677 46,374.5C 47.0113,375.337 48.1779,375.67 49.5,375.5C 49.162,377.854 48.662,380.187 48,382.5C 36.3987,405.302 25.5654,428.469 15.5,452C 14.1783,454.321 12.6783,456.488 11,458.5C 10.5,422.502 10.3333,386.502 10.5,350.5 Z M 110.5,350.5 C 111.498,387.663 111.832,424.996 111.5,462.5C 109.133,461.836 107.133,460.503 105.5,458.5C 103.572,455.212 101.739,451.879 100,448.5C 89.9969,426.458 79.9969,404.458 70,382.5C 69.338,380.187 68.838,377.854 68.5,375.5C 84.3043,374.815 97.471,368.815 108,357.5C 109.825,355.52 110.659,353.187 110.5,350.5 Z M 56.5,382.5 C 58.3575,383.602 59.6908,385.269 60.5,387.5C 64.8295,400 69.8295,412.167 75.5,424C 63.5046,424.5 51.5046,424.667 39.5,424.5C 44.6979,411.719 50.1979,399.052 56,386.5C 56.49,385.207 56.6567,383.873 56.5,382.5 Z M 39.5,432.5 C 48.8393,432.334 58.1726,432.5 67.5,433C 68.9675,434.098 69.8008,435.598 70,437.5C 70.4974,440.146 70.6641,442.813 70.5,445.5C 71.8333,445.5 73.1667,445.5 74.5,445.5C 74.2702,440.75 75.4369,436.416 78,432.5C 82.5474,440.306 86.0474,448.64 88.5,457.5C 88.1243,459.383 87.1243,460.883 85.5,462C 66.1695,462.5 46.8362,462.667 27.5,462.5C 26.6239,459.201 26.4572,455.868 27,452.5C 29.3306,447.198 31.6639,441.865 34,436.5C 34.4828,437.448 34.6495,438.448 34.5,439.5C 35.8333,439.5 37.1667,439.5 38.5,439.5C 38.448,437.097 38.7814,434.764 39.5,432.5 Z"/></g>
</svg>
